<svg xmlns="http://www.w3.org/2000/svg" height="596pt" version="1.1" viewBox="0 -7 596.45988 596" width="596pt">
<g id="surface1">
<path d="M 580.238281 98.46875 L 573.300781 76.960938 L 533.75 130.617188 C 526.511719 140.414062 515.050781 146.207031 502.875 146.230469 C 494.546875 146.324219 486.429688 143.6875 479.746094 138.714844 C 462.699219 126.121094 459.082031 102.113281 471.652344 85.054688 L 509.8125 33.25 L 483.910156 36.71875 C 463.753906 38.996094 444.984375 48.097656 430.714844 62.507812 C 407.75 85.507812 398.925781 119.066406 407.585938 150.394531 L 164.160156 393.472656 C 156.296875 391.261719 148.167969 390.140625 139.992188 390.117188 C 90.242188 390.140625 49.917969 430.476562 49.941406 480.238281 C 49.941406 489.246094 51.296875 498.195312 53.957031 506.800781 L 60.777344 528.65625 L 102.179688 472.453125 C 109.417969 462.660156 120.878906 456.867188 133.054688 456.84375 C 154.195312 456.84375 171.332031 473.980469 171.332031 495.121094 C 171.332031 503.316406 168.695312 511.308594 163.816406 517.902344 L 123.574219 572.484375 L 149.59375 569.824219 C 170.117188 567.789062 189.292969 558.664062 203.828125 544.035156 C 226.769531 521.023438 235.59375 487.476562 226.957031 456.148438 L 469.800781 213.300781 C 477.675781 215.464844 485.808594 216.550781 493.972656 216.539062 C 543.71875 216.898438 584.347656 176.851562 584.691406 127.101562 C 584.761719 117.378906 583.257812 107.710938 580.238281 98.46875 Z M 580.238281 98.46875 " style=" stroke:none;fill-rule:nonzero;fill:rgb(94.901961%,62.352941%,20%);fill-opacity:1;" />
<path d="M 361.332031 124.953125 L 319.582031 134.433594 C 312.472656 119.136719 302.640625 105.269531 290.558594 93.496094 L 313.6875 57.300781 L 263.382812 25.847656 L 240.253906 62.042969 C 224.433594 56.285156 207.710938 53.382812 190.875 53.484375 L 182.433594 11.855469 L 124.613281 25.152344 L 134.097656 66.898438 C 118.796875 74.011719 104.933594 83.839844 93.160156 95.925781 L 56.960938 72.796875 L 25.625 122.523438 L 61.820312 145.652344 C 55.992188 161.460938 53.089844 178.195312 53.261719 195.03125 L 11.515625 204.511719 L 24.46875 262.332031 L 66.792969 252.042969 C 73.902344 267.339844 83.734375 281.207031 95.816406 292.980469 L 72.691406 329.175781 L 122.183594 360.511719 L 145.3125 324.316406 C 160.679688 329.984375 176.929688 332.875 193.304688 332.875 L 193.996094 332.875 L 199.546875 357.621094 L 374.511719 183.117188 Z M 208.570312 262.332031 C 170.371094 270.9375 132.441406 246.953125 123.839844 208.757812 C 115.234375 170.558594 139.21875 132.628906 177.414062 124.027344 C 215.554688 115.433594 253.449219 139.335938 262.121094 177.453125 C 270.609375 215.648438 246.695312 253.546875 208.570312 262.332031 Z M 208.570312 262.332031 " style=" stroke:none;fill-rule:nonzero;fill:rgb(29.803922%,68.235294%,80%);fill-opacity:1;" />
<path d="M 273.328125 175.488281 C 263.3125 131 219.125 103.0625 174.640625 113.074219 C 130.152344 123.089844 102.210938 167.277344 112.226562 211.761719 C 122.242188 256.25 166.429688 284.1875 210.914062 274.175781 C 210.984375 274.164062 211.054688 274.140625 211.113281 274.128906 C 255.332031 264.378906 283.285156 220.632812 273.535156 176.414062 C 273.464844 176.101562 273.394531 175.789062 273.328125 175.488281 Z M 192.378906 253.082031 C 159.617188 253.257812 132.917969 226.832031 132.742188 194.070312 C 132.59375 166.109375 151.996094 141.835938 179.3125 135.820312 C 183.636719 134.839844 188.054688 134.332031 192.496094 134.320312 C 225.246094 135.171875 251.101562 162.417969 250.246094 195.179688 C 249.554688 221.730469 231.304688 244.570312 205.5625 251.117188 C 201.386719 252.078125 197.121094 252.574219 192.84375 252.617188 Z M 192.378906 253.082031 " style=" stroke:none;fill-rule:nonzero;fill:rgb(22.745098%,19.607843%,16.862745%);fill-opacity:1;" />
<path d="M 572.027344 67.941406 C 568.167969 67.777344 564.476562 69.558594 562.199219 72.683594 L 524.382812 123.910156 C 515.46875 135.511719 498.988281 138.007812 487.03125 129.578125 C 475.132812 120.789062 472.601562 104.023438 481.367188 92.109375 L 516.984375 43.773438 C 520.9375 38.753906 520.082031 31.492188 515.0625 27.535156 C 513.445312 26.265625 511.511719 25.441406 509.464844 25.152344 C 454.027344 16.757812 402.277344 54.898438 393.882812 110.347656 C 392.078125 122.269531 392.414062 134.421875 394.867188 146.230469 L 381.222656 159.875 L 372.664062 122.175781 C 371.230469 115.957031 365.019531 112.070312 358.796875 113.503906 L 358.785156 113.503906 L 325.828125 121.019531 C 320.117188 110.507812 313.167969 100.722656 305.128906 91.878906 L 323.167969 63.316406 C 326.582031 57.914062 324.984375 50.78125 319.582031 47.355469 L 269.859375 16.019531 C 264.457031 12.605469 257.324219 14.203125 253.898438 19.601562 L 235.859375 48.28125 C 224.574219 44.882812 212.929688 42.824219 201.167969 42.152344 L 193.765625 9.195312 C 192.332031 2.972656 186.121094 -0.910156 179.902344 0.523438 L 179.890625 0.523438 L 122.070312 13.589844 C 115.8125 14.851562 111.753906 20.957031 113.027344 27.210938 C 113.039062 27.257812 113.046875 27.304688 113.046875 27.351562 L 120.796875 59.847656 C 110.285156 65.558594 100.5 72.507812 91.65625 80.546875 L 63.09375 62.507812 C 57.691406 59.09375 50.558594 60.691406 47.132812 66.089844 L 15.792969 115.816406 C 12.382812 121.21875 13.980469 128.351562 19.378906 131.773438 L 47.941406 149.816406 C 44.542969 161.101562 42.484375 172.746094 41.8125 184.507812 L 8.972656 192.835938 C 2.75 194.269531 -1.136719 200.476562 0.296875 206.699219 L 0.296875 206.710938 L 13.25 264.53125 C 14.683594 270.753906 20.894531 274.640625 27.113281 273.203125 L 27.125 273.203125 L 60.085938 265.804688 C 65.796875 276.304688 72.746094 286.085938 80.785156 294.945312 L 62.746094 323.507812 C 59.714844 328.917969 61.507812 335.753906 66.792969 339.003906 L 116.519531 370.34375 C 118.355469 371.488281 120.484375 372.089844 122.648438 372.078125 L 124.613281 372.078125 C 127.585938 371.394531 130.152344 369.570312 131.78125 366.988281 L 149.820312 338.425781 C 161.109375 341.824219 172.753906 343.882812 184.515625 344.554688 L 186.710938 354.269531 L 159.882812 381.097656 C 153.105469 379.710938 146.214844 379.015625 139.296875 379.015625 C 83.15625 379.097656 37.71875 424.671875 37.800781 480.816406 C 37.824219 498.996094 42.726562 516.839844 51.988281 532.472656 C 55.285156 537.941406 62.382812 539.710938 67.855469 536.417969 C 69.148438 535.640625 70.28125 534.613281 71.183594 533.398438 L 110.851562 479.625 C 119.777344 467.957031 136.335938 465.457031 148.316406 473.957031 C 160.101562 482.503906 162.875 498.902344 154.5625 510.847656 L 116.746094 562.191406 C 113.105469 567.441406 114.410156 574.644531 119.660156 578.289062 C 121.140625 579.316406 122.84375 579.976562 124.609375 580.230469 C 129.882812 581.0625 135.226562 581.492188 140.570312 581.503906 C 167.511719 581.585938 193.382812 570.886719 212.382812 551.785156 C 236.527344 527.535156 246.914062 492.796875 240.019531 459.269531 L 473.847656 225.558594 C 480.625 226.945312 487.515625 227.640625 494.429688 227.640625 C 550.574219 227.59375 596.046875 182.054688 596 125.910156 C 595.988281 107.429688 590.933594 89.308594 581.394531 73.492188 C 579.394531 70.195312 575.878906 68.101562 572.027344 67.941406 Z M 149.011719 313.445312 C 143.878906 311.585938 138.144531 313.5625 135.253906 318.1875 L 118.601562 344.667969 L 88.417969 325.820312 L 105.070312 299.339844 C 107.972656 294.714844 107.253906 288.6875 103.335938 284.882812 C 92.269531 274.117188 83.257812 261.421875 76.738281 247.414062 C 74.460938 242.433594 69.011719 239.738281 63.667969 240.941406 L 33.257812 247.878906 L 25.390625 213.1875 L 55.804688 206.246094 C 61.183594 205.035156 64.964844 200.199219 64.824219 194.683594 C 64.675781 179.222656 67.335938 163.855469 72.691406 149.351562 C 74.550781 144.21875 72.574219 138.480469 67.949219 135.589844 L 41.582031 118.824219 L 60.546875 88.640625 L 87.027344 105.292969 C 91.632812 108.230469 97.65625 107.558594 101.484375 103.675781 C 112.25 92.609375 124.945312 83.597656 138.953125 77.078125 C 143.890625 74.761719 146.539062 69.316406 145.3125 64.007812 L 138.371094 33.59375 L 173.066406 25.730469 L 180.003906 56.144531 C 181.21875 61.523438 186.050781 65.304688 191.566406 65.164062 C 207.027344 65.050781 222.375 67.722656 236.898438 73.027344 C 242.03125 74.890625 247.769531 72.914062 250.660156 68.289062 L 267.3125 41.804688 L 297.496094 60.769531 L 280.84375 87.253906 C 277.941406 91.878906 278.660156 97.902344 282.578125 101.707031 C 293.820312 112.472656 302.988281 125.21875 309.636719 139.289062 C 311.953125 144.230469 317.398438 146.875 322.707031 145.652344 L 353.121094 138.710938 L 362.371094 179.417969 L 206.71875 334.609375 L 205.5625 330.332031 C 204.347656 324.953125 199.511719 321.171875 193.996094 321.3125 C 178.652344 321.414062 163.410156 318.753906 149.011719 313.445312 Z M 549.941406 181.5 C 535.277344 196.324219 515.285156 204.652344 494.433594 204.628906 C 487.285156 204.628906 480.164062 203.65625 473.269531 201.738281 C 469.152344 200.511719 464.703125 201.667969 461.707031 204.742188 L 218.859375 447.589844 C 215.785156 450.585938 214.628906 455.039062 215.855469 459.15625 C 223.40625 486.46875 215.726562 515.738281 195.734375 535.824219 C 183.082031 548.558594 166.40625 556.523438 148.550781 558.375 L 173.296875 524.839844 C 189.648438 502.695312 184.953125 471.492188 162.808594 455.140625 C 154.230469 448.804688 143.84375 445.394531 133.167969 445.394531 C 117.351562 445.4375 102.480469 452.933594 93.042969 465.628906 L 65.171875 503.445312 C 52.40625 462 75.660156 418.054688 117.09375 405.289062 C 131.457031 400.859375 146.792969 400.652344 161.269531 404.6875 C 165.386719 405.914062 169.839844 404.757812 172.835938 401.679688 L 415.679688 158.253906 C 418.746094 155.261719 419.914062 150.808594 418.6875 146.691406 C 411.101562 119.375 418.789062 90.097656 438.808594 70.023438 C 451.238281 57.523438 467.546875 49.613281 485.066406 47.585938 L 462.746094 78.347656 C 446.394531 100.503906 451.113281 131.726562 473.269531 148.078125 C 495.425781 164.429688 526.648438 159.714844 543 137.558594 L 569.136719 102.054688 C 578.167969 130.039062 570.757812 160.71875 549.941406 181.5 Z M 549.941406 181.5 " style=" stroke:none;fill-rule:nonzero;fill:rgb(22.745098%,19.607843%,16.862745%);fill-opacity:1;" />
</g>
</svg>