<svg id="Layer_5" enable-background="new 0 0 64 64" height="512" viewBox="0 0 64 64" width="512" xmlns="http://www.w3.org/2000/svg"><g><g><g><path d="m42 20v8c0 2.21-7.16 4-16 4s-16-1.79-16-4v-8c0 2.21 7.16 4 16 4s16-1.79 16-4z" fill="#fcd770"/></g><g><path d="m42 36v8c0 1.86-5.1 3.42-12 3.87v-2.87l-2.57-.65c-.2-.64-.47-1.25-.77-1.84l1.36-2.29c7.99-.22 13.98-2.16 13.98-4.22z" fill="#fcd770"/></g><g><path d="m10 28c0 2.21 7.16 4 16 4s16-1.79 16-4v4 4c0 2.06-5.99 4-13.98 4.22l-4.24-4.24-2.29 1.36c-.59-.3-1.2-.57-1.84-.77l-.65-2.57h-6l-.65 2.57c-.64.2-1.25.47-1.84.77l-.51-.3z" fill="#ffeaa7"/></g><g><ellipse cx="26" cy="20" fill="#ffeaa7" rx="16" ry="4"/></g><g><path d="m30 47.87v3.13l-2.57.65c-.2.64-.47 1.25-.77 1.84l1.36 2.29-4.24 4.24-2.29-1.36c-.59.3-1.2.57-1.84.77l-.65 2.57h-6l-.65-2.57c-.64-.2-1.25-.47-1.84-.77l-2.29 1.36-4.24-4.24 1.36-2.29c-.3-.59-.57-1.2-.77-1.84l-2.57-.65v-6l2.57-.65c.2-.64.47-1.25.77-1.84l-1.36-2.29 4.24-4.24 1.78 1.06.51.3c.59-.3 1.2-.57 1.84-.77l.65-2.57h6l.65 2.57c.64.2 1.25.47 1.84.77l2.29-1.36 4.24 4.24-1.36 2.29c.3.59.57 1.2.77 1.84l2.57.65zm-6 .13c0-4.42-3.58-8-8-8s-8 3.58-8 8 3.58 8 8 8 8-3.58 8-8z" fill="#ffc729"/></g><g><path d="m16 40c4.42 0 8 3.58 8 8s-3.58 8-8 8-8-3.58-8-8 3.58-8 8-8zm4 8c0-2.21-1.79-4-4-4s-4 1.79-4 4 1.79 4 4 4 4-1.79 4-4z" fill="#fcd770"/></g><g><path d="m62 2v20h-7-7v-20z" fill="#e6e9ed"/></g><g><path d="m62 42v20h-14v-20h7z" fill="#e6e9ed"/></g><g><path d="m52 54h6v4h-6z" fill="#b4dd7f"/></g><g><circle cx="55" cy="32" fill="#ff826e" r="3"/></g></g><g><g><path d="m9 20h2v17.036h-2z"/></g><g><path d="m30.064 48.867-.129-1.996c7.773-.502 11.065-2.257 11.065-2.871v-24h2v24c0 3.741-9.901 4.671-12.936 4.867z"/></g><g><path d="m16 57c-4.962 0-9-4.037-9-9s4.038-9 9-9 9 4.037 9 9-4.038 9-9 9zm0-16c-3.86 0-7 3.141-7 7s3.14 7 7 7 7-3.141 7-7-3.14-7-7-7z"/></g><g><path d="m19.777 63h-7.555l-.713-2.802c-.319-.119-.639-.253-.956-.4l-2.489 1.479-5.342-5.342 1.48-2.489c-.147-.317-.281-.638-.4-.956l-2.802-.713v-7.555l2.802-.713c.119-.318.252-.639.4-.956l-1.48-2.489 5.342-5.342 2.489 1.479c.317-.147.637-.281.956-.4l.714-2.801h7.555l.713 2.802c.319.119.639.253.956.4l2.489-1.479 5.342 5.342-1.48 2.489c.147.317.281.638.4.956l2.802.713v7.555l-2.802.713c-.119.318-.252.639-.4.956l1.48 2.489-5.342 5.342-2.489-1.479c-.317.147-.637.281-.956.4zm-6-2h4.445l.599-2.354.528-.168c.559-.179 1.125-.416 1.683-.704l.493-.256 2.096 1.246 3.143-3.143-1.246-2.095.254-.492c.289-.56.525-1.126.704-1.686l.169-.528 2.355-.597v-4.445l-2.354-.598-.169-.528c-.179-.56-.415-1.126-.704-1.686l-.254-.492 1.246-2.095-3.143-3.143-2.096 1.246-.493-.256c-.558-.288-1.124-.525-1.683-.704l-.528-.168-.599-2.354h-4.445l-.599 2.354-.528.168c-.559.179-1.125.416-1.683.704l-.493.256-2.096-1.246-3.143 3.143 1.246 2.095-.254.492c-.289.56-.525 1.126-.704 1.686l-.17.528-2.354.597v4.445l2.354.598.169.528c.179.56.415 1.126.704 1.686l.254.492-1.246 2.095 3.143 3.143 2.096-1.246.493.256c.558.288 1.124.525 1.683.704l.528.168z"/></g><g><path d="m16 53c-2.757 0-5-2.243-5-5s2.243-5 5-5 5 2.243 5 5-2.243 5-5 5zm0-8c-1.654 0-3 1.346-3 3s1.346 3 3 3 3-1.346 3-3-1.346-3-3-3z"/></g><g><path d="m26 25c5.88 0 17-1.045 17-5s-11.12-5-17-5-17 1.045-17 5 11.12 5 17 5zm0-8c9.744 0 15 2.129 15 3s-5.256 3-15 3-15-2.129-15-3 5.256-3 15-3z"/><path d="m29.158 28.937c.663-.026 1.341-.064 2.029-.114l-.144-1.994c-.666.048-1.324.084-1.966.11z"/><path d="m33.216 28.639c.677-.074 1.355-.161 2.026-.264l-.303-1.977c-.643.099-1.292.182-1.94.252z"/><path d="m37.264 28.011c.7-.146 1.376-.313 2.012-.496l-.552-1.922c-.588.169-1.218.323-1.871.461z"/><path d="m33 42.709.217 1.988c.677-.074 1.355-.161 2.026-.264l-.303-1.977c-.643.1-1.292.183-1.94.253z"/><path d="m36.853 42.111.411 1.957c.708-.148 1.385-.315 2.012-.495l-.552-1.922c-.58.166-1.209.322-1.871.46z"/><path d="m43 28h-2c0 .871-5.256 3-15 3s-15-2.129-15-3h-2c0 3.955 11.12 5 17 5s17-1.045 17-5z"/><path d="m27.993 39.222.056 2c7.201-.202 14.951-1.922 14.951-5.222h-2c0 .854-4.425 2.981-13.007 3.222z"/><path d="m63 23v-22h-16v22h7v5.142c-1.399.364-2.494 1.459-2.858 2.858h-9.142v2h9.142c.364 1.399 1.459 2.494 2.858 2.858v5.142h-7v22h16v-22h-7v-5.142c1.72-.447 3-1.999 3-3.858s-1.28-3.411-3-3.858v-5.142zm-2 38h-12v-18h12zm-4-29c0 1.103-.897 2-2 2s-2-.897-2-2 .897-2 2-2 2 .897 2 2zm-8-29h12v18h-12z"/><path d="m51 45h8v2h-8z"/><path d="m59 53h-8v6h8zm-2 4h-4v-2h4z"/><path d="m51 5h8v2h-8z"/><path d="m51 9h8v2h-8z"/><path d="m51 13h8v2h-8z"/><path d="m51 17h8v2h-8z"/><path d="m51 49h8v2h-8z"/><path d="m27 19h2v2h-2z"/><path d="m31 19h2v2h-2z"/><path d="m35 19h2v2h-2z"/><path d="m15 19h2v2h-2z"/><path d="m19 19h2v2h-2z"/><path d="m23 19h2v2h-2z"/></g></g></g></svg>